# xmcd
#
# Track frame offsets: 
#        150
#        17122
#        29856
#        43747
#        58385
#        72822
#        87640
#        101460
#        120672
#        134935
#        148367
#        173437
#        185890
#        209416
#        223395
#        237207
#        261874
#
# Disc length: 3874 seconds
#
# Revision: 3
# Processed by: cddbd v1.5.2PL0 Copyright (c) Steve Scherf et al.
# Submitted via: ExactAudioCopy v1.0b3
#
DISCID=1e0f2011
DTITLE=Green, Al - L-O-V-E - The Essential Al Green [Disc 1]
DYEAR=2002
DGENRE=Soul
TTITLE0=I Can't Get Next To You
TTITLE1=Tired Of Being Alone
TTITLE2=Look What You Done For Me
TTITLE3=Let's Stay Together
TTITLE4=I'm Still In Love With You
TTITLE5=You Ought To Be With Me
TTITLE6=Call Me (Come Back Home)
TTITLE7=Here I Am (Come And Take Me)
TTITLE8=Livin' For You
TTITLE9=Sha-La-La (Make Me Happy)
TTITLE10=Let's Get Married
TTITLE11=Oh Me, Oh My (Dreams In My Arms)
TTITLE12=Full Of Fire
TTITLE13=Keep Me Cryin'
TTITLE14=L-O-V-E (Love)
TTITLE15=Love Is A Beautiful Thing
TTITLE16=Green, Al with Arthur Baker and The Backbeat Disciples - The Me
TTITLE16=ssage Is Love
EXTD=
EXTT0=
EXTT1=
EXTT2=
EXTT3=
EXTT4=
EXTT5=
EXTT6=
EXTT7=
EXTT8=
EXTT9=
EXTT10=
EXTT11=
EXTT12=
EXTT13=
EXTT14=
EXTT15=
EXTT16=
PLAYORDER=
